<?xml version="1.0" encoding="UTF-8" standalone="no"?>
<svg
   width="1200pt"
   height="1200pt"
   version="1.1"
   viewBox="0 0 1200 1200"
   id="svg1"
   sodipodi:docname="XenoAtom.Ansi.svg"
   inkscape:export-filename="XenoAtom.Ansi.png"
   inkscape:export-xdpi="30.72"
   inkscape:export-ydpi="30.72"
   inkscape:version="1.4.2 (f4327f4, 2025-05-13)"
   xmlns:inkscape="http://www.inkscape.org/namespaces/inkscape"
   xmlns:sodipodi="http://sodipodi.sourceforge.net/DTD/sodipodi-0.dtd"
   xmlns="http://www.w3.org/2000/svg"
   xmlns:svg="http://www.w3.org/2000/svg">
  <defs
     id="defs1">
    <filter
       style="color-interpolation-filters:sRGB;"
       inkscape:label="Drop Shadow"
       id="filter21"
       x="-0.0089303986"
       y="-0.01097193"
       width="1.0178608"
       height="1.038516">
      <feFlood
         result="flood"
         in="SourceGraphic"
         flood-opacity="0.670588"
         flood-color="rgb(0,0,0)"
         id="feFlood20" />
      <feGaussianBlur
         result="blur"
         in="SourceGraphic"
         stdDeviation="2.000000"
         id="feGaussianBlur20" />
      <feOffset
         result="offset"
         in="blur"
         dx="0.000000"
         dy="6.000000"
         id="feOffset20" />
      <feComposite
         result="comp1"
         operator="in"
         in="flood"
         in2="offset"
         id="feComposite20" />
      <feComposite
         result="fbSourceGraphic"
         operator="over"
         in="SourceGraphic"
         in2="comp1"
         id="feComposite21" />
      <feColorMatrix
         result="fbSourceGraphicAlpha"
         in="fbSourceGraphic"
         values="0 0 0 -1 0 0 0 0 -1 0 0 0 0 -1 0 0 0 0 1 0"
         id="feColorMatrix21" />
      <feFlood
         id="feFlood21"
         result="flood"
         in="fbSourceGraphic"
         flood-opacity="0.670588"
         flood-color="rgb(0,0,0)" />
      <feGaussianBlur
         id="feGaussianBlur21"
         result="blur"
         in="fbSourceGraphic"
         stdDeviation="2.000000" />
      <feOffset
         id="feOffset21"
         result="offset"
         in="blur"
         dx="0.000000"
         dy="8.500000" />
      <feComposite
         id="feComposite22"
         result="comp1"
         operator="in"
         in="flood"
         in2="offset" />
      <feComposite
         id="feComposite23"
         result="comp2"
         operator="over"
         in="fbSourceGraphic"
         in2="comp1" />
    </filter>
  </defs>
  <sodipodi:namedview
     id="namedview1"
     pagecolor="#ffffff"
     bordercolor="#666666"
     borderopacity="1.0"
     inkscape:showpageshadow="2"
     inkscape:pageopacity="0.0"
     inkscape:pagecheckerboard="0"
     inkscape:deskcolor="#d1d1d1"
     inkscape:document-units="pt"
     inkscape:zoom="0.80212426"
     inkscape:cx="564.12706"
     inkscape:cy="853.35906"
     inkscape:window-width="3840"
     inkscape:window-height="2054"
     inkscape:window-x="-11"
     inkscape:window-y="-11"
     inkscape:window-maximized="1"
     inkscape:current-layer="svg1" />
  <path
     d="m 937.494,799.97 c 0,20.719 -16.781,37.5 -37.5,37.5 h -300 c -20.719,0 -37.5,-16.781 -37.5,-37.5 0,-20.719 16.781,-37.5 37.5,-37.5 h 300 c 20.719,0 37.5,16.781 37.5,37.5 z"
     id="path4"
     style="fill:#ff6600;stroke:#000000;stroke-opacity:1;stroke-width:17.9;stroke-dasharray:none" />
  <path
     d="m 526.494,573.47 c 14.672,14.672 14.672,38.391 0,53.016 l -200.02,200.02 c -7.3125,7.3125 -16.922,10.969 -26.531,10.969 -9.609,0 -19.172,-3.6562 -26.531,-10.969 -14.672,-14.672 -14.672,-38.391 0,-53.016 L 446.892,600.01 273.412,426.53 c -14.672,-14.672 -14.672,-38.391 0,-53.016 14.672,-14.672 38.391,-14.672 53.016,0 l 200.02,200.02 z"
     id="path3"
     style="fill:#00ccff;stroke:#000000;stroke-opacity:1;stroke-width:17.9;stroke-dasharray:none" />
  <path
     id="path2"
     d="M 200.00977 162.52002 C 124.16577 162.52002 62.529785 224.208 62.529785 300 L 62.529785 900 C 62.529785 975.844 124.21777 1037.48 200.00977 1037.48 L 1000.0298 1037.48 C 1075.8738 1037.48 1137.5098 975.792 1137.5098 900 L 1137.5098 300 C 1137.5098 224.156 1075.8218 162.52002 1000.0298 162.52002 L 999.97998 162.52002 L 200.00977 162.52002 z M 199.96289 237.51563 L 999.98291 237.51563 C 1034.4359 237.51563 1062.4673 265.547 1062.4673 300 L 1062.4644 900 C 1062.4644 934.453 1034.433 962.48438 999.97998 962.48438 L 200.00977 962.48438 C 165.55677 962.48438 137.52539 934.453 137.52539 900 L 137.47852 300 C 137.47852 265.547 165.50989 237.51562 199.96289 237.51563 z "
     style="fill:#37c871;filter:url(#filter21)" />
  <path
     id="path23"
     d="M 200.00977 162.52002 C 124.16577 162.52002 62.529785 224.208 62.529785 300 L 62.529785 900 C 62.529785 975.844 124.21777 1037.48 200.00977 1037.48 L 1000.0298 1037.48 C 1075.8738 1037.48 1137.5098 975.792 1137.5098 900 L 1137.5098 300 C 1137.5098 224.156 1075.8218 162.52002 1000.0298 162.52002 L 999.97998 162.52002 L 200.00977 162.52002 z M 199.96289 237.51563 L 999.98291 237.51563 C 1034.4359 237.51563 1062.4673 265.547 1062.4673 300 L 1062.4644 900 C 1062.4644 934.453 1034.433 962.48438 999.97998 962.48438 L 200.00977 962.48438 C 165.55677 962.48438 137.52539 934.453 137.52539 900 L 137.47852 300 C 137.47852 265.547 165.50989 237.51562 199.96289 237.51563 z "
     style="fill:#37c871;filter:url(#filter21)" />
</svg>
